{"title":"HimmatWala 2013 Untouched HDScam (IcTv) - Hindi","uid":8314354,"size":929572864,"categoryP":"video","categoryS":"movies","magnet":"?xt=urn:btih:fc6ca88ec9e925ac80beaf4989d62d6ae7dad01b&amp;dn=HimmatWala+2013+Untouched+HDScam+%28IcTv%29+-+Hindi&amp;tr=udp%3A%2F%2Ftracker.openbittorrent.com%3A80&amp;tr=udp%3A%2F%2Fopen.demonii.com%3A1337&amp;tr=udp%3A%2F%2Ftracker.coppersurfer.tk%3A6969&amp;tr=udp%3A%2F%2Fexodus.desync.com%3A6969","seeders":1,"leechers":0,"uploader":"SJonam","files":7,"time":1364550373,"description":" &lt;a href=&quot;http://desibbrg.org/images/66952052392581364616.gif&quot; rel=&quot;nofollow&quot; target=&quot;_NEW&quot;&gt;http://desibbrg.org/images/66952052392581364616.gif&lt;/a&gt; &lt;a href=&quot;\nhttp://desibbrg.org/images/62623064530740226299.png&quot; rel=&quot;nofollow&quot; target=&quot;_NEW&quot;&gt;\nhttp://desibbrg.org/images/62623064530740226299.png&lt;/a&gt; &lt;a href=&quot;\nhttp://desibbrg.org/images/34382467761521042429.png&quot; rel=&quot;nofollow&quot; target=&quot;_NEW&quot;&gt;\nhttp://desibbrg.org/images/34382467761521042429.png&lt;/a&gt; &lt;a href=&quot;\nhttp://desibbrg.org/images/51266224476648148738.png&quot; rel=&quot;nofollow&quot; target=&quot;_NEW&quot;&gt;\nhttp://desibbrg.org/images/51266224476648148738.png&lt;/a&gt; &lt;a href=&quot;\nhttp://desibbrg.org/images/29984246715298678712.png&quot; rel=&quot;nofollow&quot; target=&quot;_NEW&quot;&gt;\nhttp://desibbrg.org/images/29984246715298678712.png&lt;/a&gt;\n\nMedia Info - \nVideo\nID : 224 (0xE0)\nFormat : MPEG Video\nFormat version : Version 2\nFormat profile : Main@Main\nFormat settings, BVOP : Yes\nFormat settings, Matrix : Default\nFormat settings, GOP : M=3, N=13\nDuration : 2h 11mn\nBit rate mode : Variable\nBit rate : 798 Kbps\nMaximum bit rate : 9 072 Kbps\nWidth : 352 pixels\nHeight : 288 pixels\nDisplay aspect ratio : 4:3\nFrame rate : 25.000 fps\nStandard : PAL\nColor space : YUV\nChroma subsampling : 4:2:0\nBit depth : 8 bits\nScan type : Progressive\nCompression mode : Lossy\nBits/(Pixel*Frame) : 0.315\nStream size : 749 MiB (84%)\n\nAudio\nID : 192 (0xC0)\nFormat : MPEG Audio\nFormat version : Version 1\nFormat profile : Layer 2\nDuration : 2h 11mn\nBit rate mode : Constant\nBit rate : 128 Kbps\nChannel(s) : 2 channels\nSampling rate : 48.0 KHz\nCompression mode : Lossy\nStream size : 120 MiB (14%)\n\nSharer - MasterMind\n\nSeeding 24x7... Extreme Seeding...\n\n\nEnjoy!\n","torrent":{"xt":"urn:btih:fc6ca88ec9e925ac80beaf4989d62d6ae7dad01b","amp;dn":"HimmatWala+2013+Untouched+HDScam+%28IcTv%29+-+Hindi","amp;tr":["udp%3A%2F%2Ftracker.openbittorrent.com%3A80","udp%3A%2F%2Fopen.demonii.com%3A1337","udp%3A%2F%2Ftracker.coppersurfer.tk%3A6969","udp%3A%2F%2Fexodus.desync.com%3A6969"],"infoHash":"fc6ca88ec9e925ac80beaf4989d62d6ae7dad01b","infoHashBuffer":{"type":"Buffer","data":[252,108,168,142,201,233,37,172,128,190,175,73,137,214,45,106,231,218,208,27]},"announce":[],"urlList":[]}}